<?xml version="1.0" standalone="no"?>
<!DOCTYPE svg PUBLIC "-//W3C//DTD SVG 20010904//EN"
 "http://www.w3.org/TR/2001/REC-SVG-20010904/DTD/svg10.dtd">
<svg version="1.0" xmlns="http://www.w3.org/2000/svg"
 width="640.000000pt" height="640.000000pt" viewBox="0 0 640.000000 640.000000"
 preserveAspectRatio="xMidYMid meet">
<metadata>
Created by potrace 1.14, written by Peter Selinger 2001-2017
</metadata>
<g transform="translate(0.000000,640.000000) scale(0.100000,-0.100000)"
fill="#000000" stroke="none">
<path d="M5420 6029 c-93 -31 -304 -113 -415 -160 -39 -16 -450 -167 -475
-174 -56 -15 -373 -137 -625 -240 -11 -4 -24 -9 -30 -11 -5 -1 -62 -21 -125
-44 -63 -22 -122 -42 -130 -44 -14 -4 -209 -78 -290 -111 -19 -8 -105 -40
-190 -71 l-155 -56 -665 -2 -665 -2 -85 -28 c-411 -135 -681 -461 -716 -863
-5 -49 -7 -266 -5 -483 3 -388 2 -1518 -2 -2731 -2 -510 0 -620 12 -642 15
-28 67 -52 85 -39 6 5 34 17 61 27 28 10 115 49 195 87 287 137 341 161 606
273 126 53 267 114 314 135 132 58 249 106 316 128 78 25 110 42 211 109 l81
54 1044 -2 1043 -2 76 26 c205 70 450 265 542 431 88 160 126 285 133 431 7
139 11 188 20 209 5 14 4 17 -5 11 -11 -6 -11 -3 -1 16 10 17 10 24 2 27 -9 3
-9 9 -2 23 8 14 7 19 -1 19 -8 0 -8 4 1 15 10 12 10 15 -1 15 -10 0 -10 3 -1
12 8 8 8 17 1 31 -9 15 -8 18 3 11 11 -6 11 -5 -1 9 -11 14 -11 17 0 17 9 0
10 3 4 8 -15 10 -19 46 -5 37 9 -6 9 -2 1 13 -14 27 -14 35 1 26 7 -5 8 -3 3
6 -11 17 -13 134 -13 625 0 231 0 438 0 460 0 80 0 2013 0 2110 1 251 -5 345
-22 344 -8 0 -67 -18 -130 -40z"/>
</g>
</svg>
